<mxfile host="app.diagrams.net" modified="2022-09-28T04:55:20.379Z" agent="5.0 (Windows NT 10.0; Win64; x64) AppleWebKit/537.36 (KHTML, like Gecko) Chrome/105.0.0.0 Safari/537.36" etag="tsmmEqMByWg8CniW9fp0" version="20.2.3" type="github">
  <diagram id="C5RBs43oDa-KdzZeNtuy" name="Page-1">
    <mxGraphModel dx="1022" dy="1629" grid="1" gridSize="10" guides="1" tooltips="1" connect="1" arrows="1" fold="1" page="1" pageScale="1" pageWidth="827" pageHeight="1169" math="1" shadow="0">
      <root>
        <mxCell id="WIyWlLk6GJQsqaUBKTNV-0" />
        <mxCell id="WIyWlLk6GJQsqaUBKTNV-1" parent="WIyWlLk6GJQsqaUBKTNV-0" />
        <mxCell id="u-M0GEPMioWjp4th1Dlv-5" value="" style="rounded=0;whiteSpace=wrap;html=1;fontSize=12;shadow=1;" vertex="1" parent="WIyWlLk6GJQsqaUBKTNV-1">
          <mxGeometry x="160" y="283.75" width="120" height="46.25" as="geometry" />
        </mxCell>
        <mxCell id="WIyWlLk6GJQsqaUBKTNV-2" value="" style="rounded=0;html=1;jettySize=auto;orthogonalLoop=1;fontSize=11;endArrow=block;endFill=0;endSize=8;strokeWidth=1;shadow=0;labelBackgroundColor=none;edgeStyle=orthogonalEdgeStyle;" parent="WIyWlLk6GJQsqaUBKTNV-1" source="WIyWlLk6GJQsqaUBKTNV-3" target="WIyWlLk6GJQsqaUBKTNV-6" edge="1">
          <mxGeometry relative="1" as="geometry" />
        </mxCell>
        <mxCell id="WIyWlLk6GJQsqaUBKTNV-3" value="&lt;i&gt;M&lt;sub&gt;max&lt;/sub&gt;, P&lt;sub&gt;max&lt;/sub&gt;&lt;/i&gt;" style="rounded=1;whiteSpace=wrap;html=1;fontSize=12;glass=0;strokeWidth=1;shadow=0;" parent="WIyWlLk6GJQsqaUBKTNV-1" vertex="1">
          <mxGeometry x="160" y="80" width="120" height="40" as="geometry" />
        </mxCell>
        <mxCell id="WIyWlLk6GJQsqaUBKTNV-4" value="Yes" style="rounded=0;html=1;jettySize=auto;orthogonalLoop=1;fontSize=11;endArrow=block;endFill=0;endSize=8;strokeWidth=1;shadow=0;labelBackgroundColor=none;edgeStyle=orthogonalEdgeStyle;entryX=0.5;entryY=0;entryDx=0;entryDy=0;" parent="WIyWlLk6GJQsqaUBKTNV-1" source="WIyWlLk6GJQsqaUBKTNV-6" target="u-M0GEPMioWjp4th1Dlv-5" edge="1">
          <mxGeometry y="20" relative="1" as="geometry">
            <mxPoint as="offset" />
            <mxPoint x="220" y="290" as="targetPoint" />
          </mxGeometry>
        </mxCell>
        <mxCell id="WIyWlLk6GJQsqaUBKTNV-5" value="No" style="rounded=0;html=1;jettySize=auto;orthogonalLoop=1;fontSize=11;endArrow=block;endFill=0;endSize=8;strokeWidth=1;shadow=0;labelBackgroundColor=none;" parent="WIyWlLk6GJQsqaUBKTNV-1" source="WIyWlLk6GJQsqaUBKTNV-6" target="WIyWlLk6GJQsqaUBKTNV-7" edge="1">
          <mxGeometry y="10" relative="1" as="geometry">
            <mxPoint as="offset" />
          </mxGeometry>
        </mxCell>
        <mxCell id="WIyWlLk6GJQsqaUBKTNV-6" value="&lt;font style=&quot;font-size: 12px;&quot;&gt;&lt;br&gt;Apakah &lt;i style=&quot;&quot;&gt;D&lt;/i&gt;&amp;nbsp;dalam batas?&lt;/font&gt;" style="rhombus;whiteSpace=wrap;html=1;shadow=0;fontFamily=Helvetica;fontSize=12;align=center;strokeWidth=1;spacing=6;spacingTop=-4;" parent="WIyWlLk6GJQsqaUBKTNV-1" vertex="1">
          <mxGeometry x="160" y="160" width="120" height="90" as="geometry" />
        </mxCell>
        <mxCell id="WIyWlLk6GJQsqaUBKTNV-7" value="Check diameter Pipa" style="rounded=1;whiteSpace=wrap;html=1;fontSize=12;glass=0;strokeWidth=1;shadow=0;" parent="WIyWlLk6GJQsqaUBKTNV-1" vertex="1">
          <mxGeometry x="330" y="185" width="120" height="40" as="geometry" />
        </mxCell>
        <mxCell id="WIyWlLk6GJQsqaUBKTNV-8" value="No" style="rounded=0;html=1;jettySize=auto;orthogonalLoop=1;fontSize=11;endArrow=block;endFill=0;endSize=8;strokeWidth=1;shadow=0;labelBackgroundColor=none;edgeStyle=orthogonalEdgeStyle;exitX=0.5;exitY=1;exitDx=0;exitDy=0;" parent="WIyWlLk6GJQsqaUBKTNV-1" source="u-M0GEPMioWjp4th1Dlv-5" target="WIyWlLk6GJQsqaUBKTNV-11" edge="1">
          <mxGeometry x="0.3333" y="20" relative="1" as="geometry">
            <mxPoint as="offset" />
            <mxPoint x="220" y="360" as="sourcePoint" />
          </mxGeometry>
        </mxCell>
        <mxCell id="WIyWlLk6GJQsqaUBKTNV-11" value="Repair Lamp" style="rounded=1;whiteSpace=wrap;html=1;fontSize=12;glass=0;strokeWidth=1;shadow=0;" parent="WIyWlLk6GJQsqaUBKTNV-1" vertex="1">
          <mxGeometry x="160" y="380" width="120" height="40" as="geometry" />
        </mxCell>
        <mxCell id="u-M0GEPMioWjp4th1Dlv-0" value="&lt;b id=&quot;docs-internal-guid-c283e9a1-7fff-8a91-943f-702ff44993f7&quot; style=&quot;font-weight:normal;&quot;&gt;&lt;img src=&quot;https://lh5.googleusercontent.com/O0wNtPIF8k7aFvsIVP-OAicj7E44rgxEo4T3rBeps56XJXjigztFQZodOYEXtBjGTyRzbapaaYe1gj4ZhJELdNg_acl6iU_M6QPgcIcs6ssiF_3YAyD5sndKZksf82SxtmQVZJ4I-5SkyzkFhNNyxqt2dmUH0awvHZAzGL7Fi3q3rj1UeUaql58CrzEuciY&quot; height=&quot;611px;&quot; width=&quot;573px;&quot;&gt;&lt;/b&gt;" style="text;whiteSpace=wrap;html=1;" vertex="1" parent="WIyWlLk6GJQsqaUBKTNV-1">
          <mxGeometry x="480" y="-30" width="560" height="640" as="geometry" />
        </mxCell>
        <mxCell id="u-M0GEPMioWjp4th1Dlv-2" value="Pesan" style="text;html=1;strokeColor=none;fillColor=none;align=center;verticalAlign=middle;whiteSpace=wrap;rounded=0;fontSize=12;" vertex="1" parent="WIyWlLk6GJQsqaUBKTNV-1">
          <mxGeometry x="270" y="200" width="60" height="30" as="geometry" />
        </mxCell>
        <mxCell id="u-M0GEPMioWjp4th1Dlv-4" value="" style="shape=image;imageAspect=0;aspect=fixed;verticalLabelPosition=bottom;verticalAlign=top;fontSize=12;image=data:image/png,iVBORw0KGgoAAAANSUhEUgAAAKkAAABGCAYAAAC3x7R4AAAAAXNSR0IArs4c6QAAAARnQU1BAACxjwv8YQUAAAAJcEhZcwAAFiUAABYlAUlSJPAAABnVSURBVHhe7d11rF7F1gbwfZCLu7u70yLBpUBwCJBA0D/wBClQ/A+cQAiQAAkEC9DgViS4uxX34u7ucr73N5fnZNOv9HJP35dz2rufZLr3nj2zZmbNM2vWzJ73tGvIkCHdVYMG/Rhdv//+e0PSBv0aXb/99ltD0gb9Go0lbdDv0fXrr782JG3Qr9FY0gb9Hl3dLfxx3+C/RGsWKtfxxx+/XIOurq6ed9TbMgTVRBNNVO5ba4Ce+PHGG6+En376qfrXv/5V7r/77rtqwgknLDLJEVeHfIJ3wv8CGpL2AlT2yy+/VBNMMMH/IwpCCuJDXoSV3jMyBuR888031WSTTVbIi5B1eYlDWmnTVdK4//nnn6uJJ564xI3LaEjaC1AZ4oWkLCEChpTeJ433SBbiCrGy8iOifCGxfCEhIKmQZ8h7MlPmuIw/zyUN/jZCDtYMwQIECrFCpsS5Qt7/+OOPRY5r4gDpEVleV8/IHHnKFP5X0FjSXoDKojbkcR+rmueQ2H3IBSGidCxh3ZrCJ598Ul199dXVp59+Wq2//vrVMsss05M3iLw6scdlNJZ0DJDpNj6jZwhxXMWztLGiLKB03oWgECKynG+88Ub13HPPVZ9//nnJFzK6T5A+ecZ1NJa0F6gTKhY0U7fnH374ofr222/LokZARKt75JRu0kkn7SGwtPXVvHyPPfZYWeUvueSS1RxzzFHKqhMzgYxY4HEZDUnHAHxFBEOWkA0hn3/++UK0+eabr1pttdVK2lhCeaR99tlni8VkWbfddttCXCROGmTPTsAXX3xRvfDCC9Vrr71WTTHFFNVSSy1VzTnnnOWddOM6mum+FzCuM7UHyIKIH3/8cXX77bdXl19+eSEisHaxfCEy4p177rnVmWeeWX300Uclrr7qlxa4Cs8880x1zjnnVJdcckn1zjvv9KQjU5A394L36idE7shpkt87IXGB9AIZ3kUeRG5kue8kGpL2EjoGmZBIpyEVq4hQTz31VCEhq5jgfTp3+umnr1ZcccWS1z7p22+/3UOIEEHne//WW29Vd9xxR/X4449Xs88+e7XVVltV888/fyFWyC9PyFJ/Tohc95Etbb1MQf1HTuMq1NPlOe+ETqIh6RgA8ZAl20EvvvhimcKnnnrqatppp+0hZ6AzdTzyvfrqq8WqwnvvvVfipNf5yO/+s88+K+R88skni2+7+OKLVzPNNFOPDGnIVIZ7boJnbkLI41183hALQlJpvfcuFlW89KkHpB3SgHfySOu+k2hIOobgS+o40/ydd95ZzTXXXIVMOl7H1kmqw3Uon/SJJ56o1l133UIG206IjojpcM9I/+6771aTTDJJIScfFzFg8skn7yFd4hAm5FQnQVze1Z9DcAHUM1+vpCMzaSJXXcV59l7IfSfRkLSXsEpPh+tcU/KMM85YiKQzWbq8T2fGqn3//ffV66+/Xm266aYljsXMhn2I8/LLL5c05CAu2fPMM0+PHCQmV1kCxOpJEwsZopGRQRDC5TwBOXVSZ2ClLnmX8sggVxmCOnYSDUl7AR1klR1Svfnmm2X6XnjhhYu/qCN1qnchjg72rEPtf0411VTVbLPNVtJZOCFGyOA933aWWWYp5GRp55133mrBBRfsIQWfFwkhZbCuYBCQg/iuyk75nlnyEMszkIV8IaF4A4FsltyVvHpI+0LqTqEhaS+gcwSdjRCnn356tcYaa1SLLbZYiecC8ElZrlgfJEAMnWsxNGDAgGrKKacs8UiJ8Mjheu+995Z4xETQr7/+uppuuulK2d6TafpXFnhGKs/KIpcs5WcKl08ahGJBkV0+0A6Qxr1478kAcpMvMusWNOk6hYakvYQOZU0vvvjiatVVV62WWGKJ0pE6zoY8MrqaymORdKZNer6mz53Ss5asIrJL88orr1QffvhhscrSIjTyI3UsNCKRj7whque4AOLef//96ssvvyz1lC/WzlVQnsFhMDiFpWyQPoRWfzLj2pCrTuJjQdVF2k6iIWkvoeMfeeSR6tZbby1T/Y033lj2Rn13N1V/8MEHhYzSxLfUqchkMWSqRwALLYsuJEA68pZddtlq0UUXLensi9otsHkvPdIOHTq0WnPNNatjjz225APWG+EQCcmPPvroavvtt68uuOCC4k6or+C98m6++ebqrrvuKqSLJVU/hLv++uvLom6llVaqTjnllB53RFsOPvjgavDgwWWRaECwqmONJaUsSswUABQi3qh1D0Z3Rp4Ocy9Pp0dju6GDWMmXXnqpbLKfcMIJJZx66qllEcVKmbZ18oMPPlg6mX5YTYQKaVhjoCOb+yGo6ZSvKz0i802REFlXX331oq+77767DAZWLZaYzFtuuaUMDNaYxeZ66AdBGodXDKYrrriiPCOafnFvQKy11lrVEUccUdwNedQdEbWZRd9///2rFVZYodQHtKuTaBtJNUSlMxoFo9SVL6OxiKpTQt6MQHkod2yCOrNmCKrDb7jhhmKBLrroomqXXXYpq/ztttuufCnaZJNNSnqkttG/8cYblylU+1lU7/i1CLLAAgsU/bCiNvlt/CNLiIBQ00wzTbX00ksXV+HKK68s5MlnVdbYPZ2Ti+yu9A3I7AMCHxdZEd07/RL3waKO/I022qh8jn300UfLZ14Db+DAgWVxqB7agNgha6fQ1umekjSSUpDOqjDE1Zj6aHet38srjC0wC+ioRRZZpJCItbNFxHrpcG3R2SwfQmgjknIB+JjIYxD7ioSA9IQAM888c1mlm9aR1PuFFlroT2STXnmrrLJKNWzYsDK90ztdPvTQQ6U81pNM5Yag7k3drO96661XzgDID/InvZkN0ddZZ51SPhfEbKBds846a086echWr06i7dJVXAfpRErzbARqlNHN/zEC4xaIN7LFux9boKN0kDYiTYK2awcrKehA4auvvioHT0zfnuVDcoRCTNaV9SU3Fo4/Smd0pSxy5RVnALB0yjO9K5teffEKSaWVh8wQS/kGy/LLL1+mdXXiGkirPuSom7o7gYWoLCzXg0zkVQ6oB5mdNi7jt3yPI/64HyOoqKCBKi5QLqVxss8///zqvvvuK+ckTR9GplM9tktMcyyFvGMTMiBDOkFcpk0WEPH4e8OHD69GjBhRVtIsqA53b3CyvhYpOp2V4+ciEsuFwPSDQOQrz4zkU6ltL5YRoTfccMNCOOQiz/Qsra9fSKsvWFzuBqMhDmHvueeeQjzp9IF+I1/9EZtFt9AycAwMssWDgaO8DNZOoW0kBZ2lwkajyhtx6cgTTzyxKGezzTYrHcd6Uq5RzLeiNGnHFqKmY9JR6q79gs7URm4Al0caBDT1m+q9txDKwJRWnLxIggRcB34hdyIuQIiKRHYULF4M8muvvbakQVJxpuTbbrutpCVjhhlmKHIZDPomU70QV5n6YYsttijpUwdtcooLsfnJ+o5R0VdcAG0yW2pDdNAptG2610khpMWShmoABXG0Edde4sorr1xOABn5LIQVMGV4L8/YgpBS56i3jtJuMOAQT/vEIxgf0hcjBLF6RzjvkJOeAnmQm8VCaFeLK1Y1li6D3zN5pu5rrrmmxJGnTgiYPgF7mz4MWHRZoauPejAaLLuDLPouBGXRERrhEX/QoEFFDv+Ur6ztme6Ru5NoO0k1kPIoSSM03BTDOiBnGmY06hAW1dSWUT22QMeElBCyQoihPbFM4nLNPcR6kZV84H3yJiA1fSKczXrPXAb+rJNUFl7IzP+VzlVasq3SkYsLwvoKCDj33HMXQ3LhhRcWa8lKs5h2DdSNgeGaILaBx02zJ8yF0WbW1LWTaBsrokgNi89C6Rpt49gIz6oW+G38HGkz+ikznZW8DlqwtKa3xAs6yFVnJA481+Pq71zr8kcXArLkiUxXQKB62pANUjcDUvvcexe9gOd0biwkGa51ubmCeiCdAW16NxWT42cmpmt+JRkGPTKyyPJ7Rli+J0tq1gL1JJPxYDBYTz4uuXxlMwK3QBptYbXNBiwvq8yiRx+dRNt+PlJXqkBZGqDhO+20U1HspZdeWnwxDrsRedZZZ5Xn3XffvWw6S0/pyMlhp1gKcmUJ1l577WItpKFgV8i9EDLlnecQwD0LQMGjQ0jGSmUTnbwQiBwEc5+OlsZ7QRyMqYUhXyAT6NDgpj9lchn4rkinTtooDYuYT5eICSweWVwPREU6aelDSJsMGPWXHkHt00qLkNLpC3KRWoif3Em0naSUl5Hn6hMhkvKt9ttvv5LG1GT1iYymKj4P5Wm8TrAStnrVAb6LI9W+++5bVsAHHnhgUUw6BXmy3RVlKVd9KJ3CyRV0iqmMZR9ds+WXz1RoBW1aVB4ZQA7ZnhFE+QitLvK6qkubVFuQNqiX8t1nYChHyEBK/aOfeprIyjXp6u/ca5e8GWjaLz46jl7zHJmdQNtIqhG5phNNCw5gHHnkkdXee+9dfJ+bbrqpTD9bb711sYwceIQG/un9999ftkW4Bttss00P0X0z9iVngw02KISgRKNeeZQJFOVe+eLJFZc6Cfb7rGb/U7PJQc7llluuh6TaJB+ZOomsxLsKLI5yEcjzmEJ55KiP4Dl1qBNDmjzX40fVzuSP3pIm15QDrmS7IqRA9565Aywt1MtsN9pG0livjCww1R911FHFal522WVlc9ihB1OG79x8HOk1UF57qD4reh4yZEh5hwg+OXL6jznmmLIFIq0B4NMhYiO/OMpEYNMQongmw5ViTV/SkT86paZTpHEfOTpPO5ESSbXNHiLLzprGt0znyzcmIEs9lAl1ueKjO/Hi6ukSl7RB2iGIF1LPlOddZJMZqxmjYCA6Kmij3ywYa9sptI2kGqIBGqPSGseP3GOPPcpKnkU1lZ933nllu+SAAw4olpTPlFM4DjyYiv3lDo23qW3aZ8mcYrdYAOkNgOOOO65YR2kpEPkRxt4gH1ccZadu7pHpP33dSseQFdeCZRSAysg55JBDSh2lF6SNxU5HjwlCGsF9iAPi1Eu59C3eMySdNgS5D0GljWzpxQF5iYtM9ylP21yt+jfffPPSh3F1OoW2+qRpuEaxcKb2ww47rFhPlhFpWMWTTjqpHAXze3PTvXxcAD/vdYLIXqo9PGTjywIlI0mUR1k77rhjSbvlllsWAltQsNj8TnH2D8kW5GN9bXg/8MADJe6vkHIMLvJNadIrV2cgqDQWJ9qkbtIjiwEgzvt2qDYylKt8AaJvpFJ2nSRJkzYmnyCfPPU6x/8E8dJImzLFCdKaoVJ2ZOqLuGydQNvor+ICaABCOEzBb3EKiJWxOrRQEmfz2BYUBWmo79S2Pmyd+CbNctpS8V6goHSKYPqnOOmtVpWNGKYhA4QfC+Jj2VhtZLZgG10wYOxD5lS8cpWlnqBD1MmeZKytOHV076o81zEJIZF2kRdyJKQu0qibNELqGySfq3TkJngmI8/qT09coww2caylZzJAOfIK4juKVqFtQYsI3a2O624RqNy3psHuFtm6BwwY0N2ahkt8S3HdLWV1txZB3QMHDuweNmxYd4sUJd+IESO6Bw8e3D1o0KDu6667rqQT5GuRuXvo0KE9MuRpuQ/dLUvaPXz48O6WZStBuS1ydu+2227drYVaT3rx4L5l6cqzd38VvBek95x2eXavXpGrXO9c6+13HVNEB7knM/XIu4R6nPv6szzqlronTV1Wnt0HaV/amHQj52n5qH/k6AzaZkmNwlbFy3THkj388MPlS5NRyIIaca1GlbSmYVtOZ599dpneOeKmVivpVp1K/Mknn1zOajqP6VOco2VkgJFPtk1sI1y8Ea8OLcWWZ/HQUmJP3VrK7rEasTqjCt7X07BUruS6B/fSxMq5Jl3ytgPqTKegDXSlbPf07BnE5ZpAlyMj6SBtAteR65z2pY2RWw/iO21J23bABAEpjl/oN+WmTIsXW0mUhTwaiyR8PFO0KxJrKFL5QmKRZIoVfI6zKPJJzopdhyGdjnEC3h6mM5GmJwpTByetnn766ZLHKXfx6qWMkKeu5NEFGFX83w3tgDoL9Kcd9AXa6t7AyEBUJj9ZujxD6qPtoD/SX+6TNiGoxyV+VPd57hTauk+aQFEIZYRRLvhW7JlCvOP7xbJSHh+I0sVbpVO8OH5fkBHrM6kPA7axEFGZZPCDbWE5ErfDDjuUhZfmea8z3Qv/hGLbgXrXaEPqn/Ya9J7pzEBtTeclPqGu31G1N/L0SX9GW1f3Ge2sJQUJUYD3iEJZ0oB78dK5z1QqTohipSebXFb0jDPOKF+t9tlnn/JVyHuWt+XLli0hX6mcWkd65acMnRqMqtP6IwxWqOsxV+8y+DL4Q0g6SR7P0UPyS5dn9/0Zbd+CAkrJKB5ZuVEi0lGye3F1ReWeDOl0BDnibZ7vvPPO5aCDLSzvHEJhRYC7wAVguesd5T3LPDZB/emNDhDQMx2I027PBqLBZ5CyptqrrXRrUGfgh7gCRI7n+uDtj2jrdA8aH2VQDFBy3bmmQMWGoEknrv6MpORQvDgdgaR+LsGndXRMJ+lAVz6sMKovS8rUGeTVy+jPUGcwe9iis21nj1db7SMjIJ3QL13w0TM4QTsTgE7S3dqf+7zvr2grSSnVFRlCEOLFu6dUz9LkXSyu51zrStUBIR3fy95l5IP77OFBOggSJ68gj7qoR/L3Z0Q3rvaUncD3E2mLQucYtJ3/b/fEnjQLao+ZLw7e04G200tmI/eJGxt00bYhlBGrwWk0ReRaj6unAff1vFFg4t2HrHYEfAwQHKOz6q8PiuRJPrJSDxA/tgCpMouwnhaR2ouE/oK0r2G25nwg8ewTsoWjE/V1PcdtyszkHrER37W/o22WtI6RiUEpRnQU5gpRZIiTPMmvg4Bi6xYw/idyJm3kRLY84Dly/2mCplxX9dEeUzcS5bwnaJu2xHLyLfnWXJrkcb72qquuKltse+21VzncQR8B+Q7gWDzy2X0WJtOXNz67e1uC9qMd+PFjSPuvDuz4aYjDPvQay6tuQmbB9EVfoK0/xAvSwIT6lBIiCXVSQeLzLvAciyKQF5nSJXgOkrYe/knoXJ2tXgjk3ua733T5IxKOIyJLCMPXZAnd58eJPuFGD7bVHL5BIgtGLk5kuyoP6chBdqSzJWe3w8cQP8zL4jF/f98HEeVbYPnAwpjQK1kpl3y6y3NfoO9KHsehc0NOcHW00FlWZxSQzkcHxDAA/VEH8YiUDXnEkE9w2t5PO+LqIGvKQCrEdG7Bwkk5tuj48FwCh8URGGHtQVtgHXrooYXsBk7qkdmuXnek7UsrCg1JOwQdroPT2QjDsrFYTm+5snYOczspZr/XL2gPOuigatdddy2rdYSR1wreuVoEdugmn3zJNo1ndyMug3KQEmn5sOJ8hvb1D2nJYKUdziGfHANCfSFW07uEvkRD0g4hne/KEgkWen5ZkD9I5hC4/V6+J1Ll2fFEP04MWEard9trfjRHboiFgK6epUNY5fBpEVH5LLBFl69zOUmP8Cy36d9gMeVLyyrHeqacvkZD0g4BeQJTKZKwlqxdtoyQDnIAJ2cQ6pvwiIN8/FSkQ2KykQeR4md65l+y2D5m+K0+IKgpHXEFJJTHYsx2nnskBfX0PlC2+gh9iYakHUKsp45OQK4Q1hTOfwTTM1IiMCAcEknr6myrNP4CimkdaULiTPGCHzDKkz/3CHxfH0BYVj+zkV5evqkPBJ4d7AH3Bgj59UHW12hI2iGEmOl494GpnYWz38ly+SkMUkjHDWANEdy9dFbipn9HExGoTn73COcn4k6gObPAXciiyyJMvIHBR1UOkrKgvmAhvl/lwshWs+6b9iVaLWn927d1GKehg2PpEAopbRMhIBKwjAKL6Xgjn5KFQ05WEYE9s4KZlkMaFpdcVvbwww8vi6M999yzbF8hvLL8eXODQhy3AAljqZEb+MQhZyy4uqkv9D1JG3QUSIQsOl3n21h3kBtRWFLkYOVM/X6g6M/b2LTnh7LCto1s5Pvhm4UVefICa+i/iPRjR39UzGa+q3ygPGWzoEgqb+JYV/lZ5zqySxDSqnfduvYFGpJ2CDqWBUKIWFNk82cwWUnkQBjp/CE3ixob+c7IIoZVuL1Tv3CQnr/pD976CGBTHyHtc/rC5O8T+KuFFkzAAirP4oxPinQGgWmebHuuFk0IaTEXqMtfhb5EV/fvf9jyvq3HOAnkzFTpihxIx3+0wW47CmkQ2a8ZfIlCHIdEXK3ouQAsp2erf0RDOMF+KbkIbqo3rZvmkVQeuwYWTfJIw2IjHPfBT8uR/rTTTit+bH9GQ9IOAfEACREGORDKqp4VM/0iTYjFqopHKD4iP9N0zAqKyzSdRRh5iOs5UzLrmXu+pWuC+IALcfzxxxeXwt/nsrXVn9FM9/8A6mSxSnfII9tPmfKRNV+IkJplZP18AhUnIK98FkAIbvElLXLGYiOn3QGkDMHJD8ndIz8rS55y+jsaknYIplwBKWLdAJmQyxXBEC6fNREKsfIOstghKwsa6chESFf5Q0BpQk55Y8XlFycdt8MxPYRXbn9HQ9IOAdHqIYRBqhDLcwhl2vYsrThp6hayTvaQX77I8A6Z69N8ynWVNvH2Rv33Pc6hiu/vaHzSDgExEAhCGM/uESr+JnjOe1cIoYQgcsBVPpYR0ZDRPRkIH4iXTvDOFZn5xp65GP0dDUnbhJAHQqyQDjHqzyyhq3QhTvInzjX5vIuc3NefpUVGiJUlY2TU8wBScz36O7q6f/uDpQ1JewWEgBAHEldH3kHuQ8IGo0ejpV6gTsiRMbp3kPejS9Pgz+j6vWVJ/31X/m0whqiTb1QWtcF/j67PP/3s32pt9Nk2ICey5lpHnbiNNf07qKr/A102kRwY2EVfAAAAAElFTkSuQmCC;direction=east;" vertex="1" parent="WIyWlLk6GJQsqaUBKTNV-1">
          <mxGeometry x="171.71" y="285.63" width="96.57" height="40" as="geometry" />
        </mxCell>
        <mxCell id="u-M0GEPMioWjp4th1Dlv-6" value="Kalkulasi Reynold number" style="text;html=1;strokeColor=none;fillColor=none;align=center;verticalAlign=middle;whiteSpace=wrap;rounded=0;shadow=1;fontSize=12;" vertex="1" parent="WIyWlLk6GJQsqaUBKTNV-1">
          <mxGeometry x="290" y="285.63" width="90" height="56.25" as="geometry" />
        </mxCell>
      </root>
    </mxGraphModel>
  </diagram>
</mxfile>
